<svg viewBox="0 0 87 32" fill="#000" xmlns="http://www.w3.org/2000/svg">
<path d="M13.776 6.22C10.808 5.996 9.32402 7.186 9.32402 9.79V10H13.776V15.208H9.32402V31H3.90602V15.208H0.882019V10H3.90602V9.79C3.90602 6.822 4.73202 4.568 6.38402 3.028C8.03602 1.488 10.5 0.816 13.776 1.012V6.22Z" fill="#000"/>
<path d="M29.5649 10H34.9829V31H29.5649V28.648C28.2489 30.608 26.1629 31.588 23.3069 31.588C21.0109 31.588 19.1069 30.818 17.5949 29.278C16.1109 27.738 15.3689 25.61 15.3689 22.894V10H20.7869V22.222C20.7869 23.622 21.1649 24.7 21.9209 25.456C22.6769 26.184 23.6849 26.548 24.9449 26.548C26.3449 26.548 27.4649 26.114 28.3049 25.246C29.1449 24.378 29.5649 23.076 29.5649 21.34V10Z" fill="#000"/>
<path d="M44.2248 15.964C44.2248 16.524 44.5888 16.986 45.3168 17.35C46.0728 17.686 46.9828 17.994 48.0468 18.274C49.1108 18.526 50.1748 18.862 51.2388 19.282C52.3028 19.674 53.1988 20.346 53.9268 21.298C54.6828 22.25 55.0608 23.44 55.0608 24.868C55.0608 27.024 54.2488 28.69 52.6248 29.866C51.0288 31.014 49.0268 31.588 46.6188 31.588C42.3068 31.588 39.3668 29.922 37.7988 26.59L42.5028 23.944C43.1188 25.764 44.4908 26.674 46.6188 26.674C48.5508 26.674 49.5168 26.072 49.5168 24.868C49.5168 24.308 49.1388 23.86 48.3828 23.524C47.6548 23.16 46.7588 22.838 45.6948 22.558C44.6308 22.278 43.5668 21.928 42.5028 21.508C41.4388 21.088 40.5288 20.43 39.7728 19.534C39.0448 18.61 38.6808 17.462 38.6808 16.09C38.6808 14.018 39.4368 12.394 40.9488 11.218C42.4888 10.014 44.3928 9.412 46.6608 9.412C48.3688 9.412 49.9228 9.804 51.3228 10.588C52.7228 11.344 53.8288 12.436 54.6408 13.864L50.0208 16.384C49.3488 14.956 48.2288 14.242 46.6608 14.242C45.9608 14.242 45.3728 14.396 44.8968 14.704C44.4488 15.012 44.2248 15.432 44.2248 15.964Z" fill="#000"/>
<path d="M62.2817 22.726C63.0097 25.358 64.9837 26.674 68.2037 26.674C70.2757 26.674 71.8437 25.974 72.9077 24.574L77.2757 27.094C75.2037 30.09 72.1517 31.588 68.1197 31.588C64.6477 31.588 61.8617 30.538 59.7617 28.438C57.6617 26.338 56.6117 23.692 56.6117 20.5C56.6117 17.336 57.6477 14.704 59.7197 12.604C61.7917 10.476 64.4517 9.412 67.6997 9.412C70.7797 9.412 73.3137 10.476 75.3017 12.604C77.3177 14.732 78.3257 17.364 78.3257 20.5C78.3257 21.2 78.2557 21.942 78.1157 22.726H62.2817ZM62.1977 18.526H72.9077C72.5997 17.098 71.9557 16.034 70.9757 15.334C70.0237 14.634 68.9317 14.284 67.6997 14.284C66.2437 14.284 65.0397 14.662 64.0877 15.418C63.1357 16.146 62.5057 17.182 62.1977 18.526Z" fill="#000"/>
<path d="M85.542 30.496C84.842 31.196 84.002 31.546 83.022 31.546C82.042 31.546 81.202 31.196 80.502 30.496C79.802 29.796 79.452 28.956 79.452 27.976C79.452 26.996 79.802 26.156 80.502 25.456C81.202 24.756 82.042 24.406 83.022 24.406C84.002 24.406 84.842 24.756 85.542 25.456C86.242 26.156 86.592 26.996 86.592 27.976C86.592 28.956 86.242 29.796 85.542 30.496Z" fill="#000"/>
</svg>
