<svg width="238" height="57" viewBox="0 0 238 57" fill="none" xmlns="http://www.w3.org/2000/svg">
<path fill-rule="evenodd" clip-rule="evenodd" d="M57 24.9749C57 12.2862 46.7026 2 34 2C21.2974 2 11 12.2862 11 24.9749C11 30.4713 12.9381 35.5142 16.1619 39.4676H16.1564C16.1564 39.4676 23.6057 49.6921 32.0697 53.1182C33.3015 53.6168 34.6985 53.6168 35.9303 53.1182C44.3943 49.6921 51.8436 39.4676 51.8436 39.4676H51.8381C55.0619 35.5142 57 30.4713 57 24.9749V24.9749ZM36.1846 31.8353L38.0103 37.324C38.2185 37.9513 37.7514 38.5985 37.0903 38.5985H30.9092C30.2481 38.5985 29.781 37.9513 29.9892 37.324L31.8149 31.8353C28.9028 30.9108 26.7918 28.1891 26.7918 24.9742C26.7918 20.9978 30.019 17.7741 33.9997 17.7741C37.9805 17.7741 41.2077 20.9978 41.2077 24.9742C41.2077 28.1891 39.0967 30.9108 36.1846 31.8353V31.8353Z" fill="#56C3CF"/>
<path d="M73.1602 43.8256H80.2283V32.9866H86.1702C93.8587 32.9866 98.3314 28.3996 98.3314 21.7232C98.3314 15.0794 93.9403 10.3945 86.3497 10.3945H73.1602V43.8256ZM80.2283 27.3223V16.1731H84.9949C89.0758 16.1731 91.051 18.3932 91.051 21.7232C91.051 25.0369 89.0758 27.3223 85.0275 27.3223H80.2283Z" fill="#222222"/>
<path d="M104.401 43.8256H111.355V29.6402C111.355 26.555 113.607 24.433 116.676 24.433C117.639 24.433 118.961 24.5962 119.614 24.8084V18.638C118.994 18.4911 118.129 18.3932 117.427 18.3932C114.619 18.3932 112.318 20.0255 111.404 23.1271H111.142V18.7523H104.401V43.8256Z" fill="#222222"/>
<path d="M134.98 44.3153C142.587 44.3153 147.321 39.108 147.321 31.3869C147.321 23.6168 142.587 18.4258 134.98 18.4258C127.373 18.4258 122.639 23.6168 122.639 31.3869C122.639 39.108 127.373 44.3153 134.98 44.3153ZM135.013 38.9284C131.503 38.9284 129.708 35.7127 129.708 31.3379C129.708 26.9631 131.503 23.731 135.013 23.731C138.457 23.731 140.253 26.9631 140.253 31.3379C140.253 35.7127 138.457 38.9284 135.013 38.9284Z" fill="#222222"/>
<path d="M153.451 53.228H160.405V39.8099H160.618C161.581 41.8994 163.686 44.2337 167.735 44.2337C173.448 44.2337 177.904 39.712 177.904 31.3216C177.904 22.7026 173.252 18.4258 167.751 18.4258C163.556 18.4258 161.548 20.9233 160.618 22.9638H160.307V18.7523H153.451V53.228ZM160.258 31.2889C160.258 26.8162 162.152 23.9596 165.531 23.9596C168.975 23.9596 170.804 26.9468 170.804 31.2889C170.804 35.6637 168.943 38.6999 165.531 38.6999C162.185 38.6999 160.258 35.7616 160.258 31.2889Z" fill="#222222"/>
<path d="M197.486 18.7523H192.768V12.7452H185.814V18.7523H182.386V23.9759H185.814V37.0349C185.782 41.9483 189.128 44.3806 194.172 44.1684C195.968 44.1031 197.241 43.7439 197.943 43.5154L196.849 38.3408C196.506 38.4061 195.772 38.5693 195.119 38.5693C193.731 38.5693 192.768 38.0469 192.768 36.1207V23.9759H197.486V18.7523Z" fill="#222222"/>
<path d="M207.918 53.228C213.092 53.228 215.835 50.5836 217.255 46.5353L227 18.7849L219.638 18.7523L214.398 37.1655H214.137L208.946 18.7523H201.633L210.627 44.5438L210.219 45.6048C209.305 47.9555 207.558 48.0697 205.11 47.3188L203.543 52.5098C204.539 52.9342 206.155 53.228 207.918 53.228Z" fill="#222222"/>
</svg>
